<svg width="37" height="29" viewBox="0 0 37 29" fill="none" xmlns="http://www.w3.org/2000/svg">
<path fill-rule="evenodd" clip-rule="evenodd" d="M36.0411 0.668457C31.2807 3.60847 27.8603 7.92466 26.4595 10.733C25.3056 13.0425 25.4093 15.5134 25.9476 17.1859C27.0537 14.5998 28.8611 11.8524 31.8042 9.45557C31.7844 13.2746 30.7869 16.4171 29.475 18.9028C31.1161 18.2822 33.121 16.8155 34.2024 14.4582C35.511 11.6071 36.7324 6.23078 36.0411 0.668457Z" fill="black"/>
<path d="M11.6738 28.7187L8.94137 28.6693L0.30957 11.1346L3.06668 9.7749L10.38 24.6314L15.1782 15.6928L17.8826 15.6911L22.7203 24.6132L24.9079 20.1308L27.6716 21.4806L24.1705 28.6463L21.4397 28.7023L16.5378 19.66L11.6738 28.7187Z" fill="black"/>
</svg>
