<svg width="37" height="29" viewBox="0 0 37 29" fill="none" xmlns="http://www.w3.org/2000/svg">
<path fill-rule="evenodd" clip-rule="evenodd" d="M36.4844 0.258362C31.7241 3.19837 28.3036 7.51456 26.9029 10.3229C25.749 12.6324 25.8527 15.1033 26.3909 16.7758C27.4971 14.1897 29.3044 11.4423 32.2475 9.04548C32.2278 12.8645 31.2303 16.007 29.9184 18.4927C31.5595 17.8721 33.5644 16.4054 34.6458 14.0481C35.9544 11.197 37.1758 5.82068 36.4844 0.258362Z" fill="black"/>
<path d="M12.1171 28.3086L9.38473 28.2592L0.75293 10.7245L3.51004 9.36481L10.8234 24.2213L15.6216 15.2827L18.326 15.281L23.1637 24.2031L25.3513 19.7207L28.115 21.0705L24.6138 28.2362L21.8831 28.2922L16.9812 19.2499L12.1171 28.3086Z" fill="black"/>
</svg>
