<svg width="20" height="20" viewBox="0 0 20 20" fill="none" xmlns="http://www.w3.org/2000/svg">
<path d="M18.5188 0H7.46354C6.67562 0 6.03467 0.641 6.03467 1.42887V4.78252H7.33902V1.42887C7.33902 1.36022 7.39489 1.30435 7.46354 1.30435H18.5188C18.5875 1.30435 18.6434 1.36022 18.6434 1.42887V12.4842C18.6434 12.5529 18.5875 12.6087 18.5188 12.6087H15.2698V13.9131H18.5188C19.3067 13.9131 19.9477 13.2721 19.9477 12.4842V1.42887C19.9477 0.641 19.3067 0 18.5188 0Z" fill="black"/>
<path d="M12.5365 6.08687H1.48122C0.693307 6.08687 0.0523071 6.72787 0.0523071 7.51578V18.5711C0.0523506 19.359 0.693307 20 1.48122 20H12.5365C13.3244 20 13.9654 19.359 13.9654 18.5711V7.51578C13.9655 6.72787 13.3244 6.08687 12.5365 6.08687ZM12.5366 18.6957H1.48122C1.41252 18.6957 1.35665 18.6398 1.35665 18.5711V7.51578C1.35665 7.44709 1.41252 7.39122 1.48122 7.39122H12.5365C12.6052 7.39122 12.6611 7.44709 12.6611 7.51578V18.5711H12.6611C12.6611 18.6398 12.6052 18.6957 12.5366 18.6957Z" fill="black"/>
</svg>
