<svg width="135" height="47" viewBox="0 0 135 47" fill="none" xmlns="http://www.w3.org/2000/svg">
<path d="M22.9279 3.3107C23.8647 3.3107 24.6241 2.56957 24.6241 1.65535C24.6241 0.741124 23.8647 0 22.9279 0C21.9912 0 21.2318 0.741124 21.2318 1.65535C21.2318 2.56957 21.9912 3.3107 22.9279 3.3107Z" fill="#00B536"/>
<path d="M59.3945 28.4365H55.1845L60.8787 0L70.2983 20.544L79.8085 0L84.9275 28.4365H80.7172L77.9611 12.5038L70.0862 28.7025L62.2719 12.4742L59.3945 28.4365Z" fill="white"/>
<path d="M87.108 0.266038H91.5907L98.7386 17.9723L106.038 0L113.095 17.9723L120.485 0.295598H124.968L112.853 28.4365L105.796 9.69556L98.6478 28.4365L87.108 0.266038Z" fill="white"/>
<path d="M130.39 0H134.539V28.4365H130.39V0Z" fill="white"/>
<path fill-rule="evenodd" clip-rule="evenodd" d="M58.5769 44.4282C59.5763 44.4282 60.2427 43.9848 60.4547 43.6303V44.3396H61.4239V36.0333H60.4547V38.8711C60.0912 38.5163 59.5158 38.2799 58.6374 38.2799C56.9716 38.2799 55.5784 39.5509 55.5784 41.3837C55.5784 43.2754 56.8201 44.4282 58.5769 44.4282ZM60.4547 39.9943V42.3885C60.2124 42.8616 59.6067 43.5119 58.698 43.5119C57.4864 43.5119 56.6081 42.7138 56.6081 41.3541C56.6081 40.0238 57.6076 39.1666 58.7586 39.1666C59.5461 39.1666 60.0912 39.4621 60.4547 39.9943Z" fill="white"/>
<path fill-rule="evenodd" clip-rule="evenodd" d="M64.392 36.4768C64.392 36.1516 64.1194 35.9151 63.7863 35.9151C63.4228 35.9151 63.1503 36.1516 63.1503 36.4768C63.1503 36.8314 63.4228 37.068 63.7863 37.068C64.1194 37.068 64.392 36.8314 64.392 36.4768ZM64.2406 38.3981H63.2714V44.3397H64.2406V38.3981Z" fill="white"/>
<path fill-rule="evenodd" clip-rule="evenodd" d="M68.875 46.7045C70.4197 46.7045 71.601 45.8768 71.601 43.8667V38.3687H70.6015V38.9006C70.3289 38.5756 69.6929 38.2503 68.7842 38.2503C67.1184 38.2503 65.7554 39.4033 65.7554 41.3246C65.7554 43.2459 66.9669 44.3988 68.7842 44.3988C69.814 44.3988 70.238 44.1031 70.6318 43.6598V44.0145C70.6318 45.1082 70.026 45.7585 68.8448 45.7585C67.8756 45.7585 67.3001 45.3151 67.0577 44.8718L66.1795 45.2561C66.5126 46.1428 67.5424 46.7045 68.875 46.7045ZM70.6318 40.0238V42.4183C70.4197 42.9797 69.814 43.5414 68.9356 43.5119C67.6333 43.5119 66.7851 42.7138 66.7851 41.3542C66.7851 39.9352 67.7847 39.1667 68.9356 39.1667C69.7534 39.1667 70.3592 39.5509 70.6318 40.0238Z" fill="white"/>
<path fill-rule="evenodd" clip-rule="evenodd" d="M74.5688 36.4768C74.5688 36.1516 74.2962 35.9151 73.9631 35.9151C73.5996 35.9151 73.327 36.1516 73.327 36.4768C73.327 36.8314 73.5996 37.068 73.9631 37.068C74.2962 37.068 74.5688 36.8314 74.5688 36.4768ZM74.4174 38.3981H73.4482V44.3397H74.4174V38.3981Z" fill="white"/>
<path d="M75.6291 38.3982H76.9012V36.8907H77.8704V38.3982H79.9602V39.3145H77.8704V41.9158C77.8704 43.0982 78.2036 43.4824 78.9304 43.4824C79.3547 43.4824 79.6879 43.3051 80.021 43.0686L80.475 43.778C80.1118 44.1623 79.5063 44.3988 78.7487 44.3988C77.5675 44.3988 76.9012 43.6302 76.9012 42.1523V39.3145H75.6291V38.3982Z" fill="white"/>
<path fill-rule="evenodd" clip-rule="evenodd" d="M83.8674 38.2503C82.9895 38.2503 82.02 38.6051 81.4445 39.1076L81.9292 39.8171C82.5048 39.4033 83.0495 39.1667 83.7466 39.1667C85.0184 39.1667 85.3816 39.8762 85.3816 40.9403C85.0792 40.8517 84.4129 40.7629 83.9582 40.7629C82.2016 40.7629 81.0506 41.2951 81.0506 42.5957C81.0506 43.6893 81.9292 44.3988 83.2619 44.3988C84.3221 44.3988 85.0184 43.9553 85.3816 43.4528V44.3396H86.3511V40.6448C86.3511 39.1371 85.5032 38.2503 83.8674 38.2503ZM85.3816 41.7975V42.3887C85.17 42.8616 84.5037 43.5414 83.4734 43.5414C82.6555 43.5414 82.0808 43.1869 82.0808 42.5661C82.0808 41.8566 82.8379 41.6201 84.0798 41.6201C84.5637 41.6201 85.0792 41.7087 85.3816 41.7975Z" fill="white"/>
<path d="M88.1075 36.0039H89.0769V44.3397H88.1075V36.0039Z" fill="white"/>
<path fill-rule="evenodd" clip-rule="evenodd" d="M97.0727 38.2503C96.1948 38.2503 95.2254 38.6051 94.6498 39.1076L95.1346 39.8171C95.7101 39.4033 96.2548 39.1667 96.9519 39.1667C98.2238 39.1667 98.5869 39.8762 98.5869 40.9403C98.2846 40.8517 97.6182 40.7629 97.1635 40.7629C95.4069 40.7629 94.2559 41.2951 94.2559 42.5957C94.2559 43.6893 95.1346 44.3988 96.4672 44.3988C97.5275 44.3988 98.2238 43.9553 98.5869 43.4528V44.3396H99.5564V40.6448C99.5564 39.1371 98.7085 38.2503 97.0727 38.2503ZM98.5869 41.7975V42.3887C98.3754 42.8616 97.709 43.5414 96.6788 43.5414C95.8617 43.5414 95.2861 43.1869 95.2861 42.5661C95.2861 41.8566 96.0432 41.6201 97.2851 41.6201C97.7698 41.6201 98.2846 41.7087 98.5869 41.7975Z" fill="white"/>
<path fill-rule="evenodd" clip-rule="evenodd" d="M104.009 46.7045C105.553 46.7045 106.734 45.8768 106.734 43.8667V38.3687H105.735V38.9006C105.463 38.5756 104.827 38.2503 103.918 38.2503C102.253 38.2503 100.889 39.4033 100.889 41.3246C100.889 43.2459 102.101 44.3988 103.918 44.3988C104.948 44.3988 105.372 44.1031 105.766 43.6598V44.0145C105.766 45.1082 105.16 45.7585 103.978 45.7585C103.01 45.7585 102.434 45.3151 102.192 44.8718L101.313 45.2561C101.646 46.1428 102.677 46.7045 104.009 46.7045ZM105.735 40.0238V42.4183C105.553 42.9797 104.948 43.5414 104.039 43.5119C102.737 43.5119 101.889 42.7138 101.889 41.3542C101.889 39.9352 102.888 39.1667 104.039 39.1667C104.857 39.1667 105.463 39.5509 105.735 40.0238Z" fill="white"/>
<path fill-rule="evenodd" clip-rule="evenodd" d="M111.339 44.458C112.338 44.458 113.186 44.0441 113.762 43.2165L113.125 42.6548C112.762 43.1572 112.096 43.5415 111.369 43.5415C110.127 43.5415 109.218 42.8912 109.158 41.6792H113.943C114.004 41.4132 114.004 41.1768 114.004 40.9699C114.004 39.3145 112.792 38.2799 111.187 38.2799C109.158 38.2799 108.098 39.6398 108.098 41.3837C108.098 43.246 109.401 44.458 111.339 44.458ZM112.974 40.8222H109.127C109.279 39.8467 110.006 39.1373 111.126 39.1669C112.217 39.1669 112.914 39.758 112.974 40.8222Z" fill="white"/>
<path d="M115.367 38.3981H116.336V39.1667C116.73 38.5755 117.548 38.2799 118.426 38.2799C120.001 38.2799 120.88 39.078 120.88 40.9699V44.3397H119.91V41.0881C119.91 39.7875 119.335 39.1963 118.123 39.1963C117.366 39.1963 116.669 39.6692 116.336 40.4082V44.3397H115.367V38.3981Z" fill="white"/>
<path d="M127.967 43.0982C127.513 43.9553 126.422 44.4283 125.453 44.4283C123.515 44.4283 122.212 43.2164 122.212 41.3541C122.212 39.6101 123.484 38.2503 125.392 38.2503C126.482 38.2503 127.452 38.7233 127.846 39.4623L127.089 39.9648C126.665 39.4032 126.149 39.1667 125.392 39.1667C124.15 39.1667 123.212 40.0831 123.212 41.3541C123.212 42.6547 124.12 43.5415 125.514 43.5415C126.24 43.5415 126.846 43.1868 127.209 42.6252L127.967 43.0982Z" fill="white"/>
<path d="M129.512 45.7586C129.602 45.7882 129.663 45.8178 129.754 45.8178C130.208 45.8178 130.511 45.5221 130.935 44.5762L131.117 44.1329L128.179 38.4278H129.33L131.601 42.9209L133.328 38.4278H134.388L132.086 44.2806C131.268 46.2907 130.632 46.7636 129.784 46.7636C129.542 46.7636 129.299 46.7045 129.118 46.6158L129.512 45.7586Z" fill="white"/>
<path d="M37.7388 28.4068H44.3718L45.8862 25.9237H35.9821L31.6509 37.6885L28.8947 32.8407L24.2001 41.2061V5.40927H21.6558V46.4086H24.2001L28.8947 37.6589L31.8023 43.6004L32.4989 41.7973L33.1047 40.2602" fill="white"/>
<path d="M8.14745 23.4112H1.48411L0 25.8941H9.90418L14.2353 14.0998L16.9613 18.9772L21.6559 10.6118V46.4086H24.2304V5.40927H21.6559L16.9915 14.1589L14.0839 8.21744L13.3873 10.0206H13.357L12.7815 11.5282V11.5577" fill="white"/>
</svg>
